<?xml version="1.0" encoding="utf-8"?>
<!-- Generator: Adobe Illustrator 24.3.0, SVG Export Plug-In . SVG Version: 6.00 Build 0)  -->
<svg version="1.1" id="Layer_1" xmlns="http://www.w3.org/2000/svg" xmlns:xlink="http://www.w3.org/1999/xlink" x="0px" y="0px"
	 viewBox="0 0 1024 1024" style="enable-background:new 0 0 1024 1024;" xml:space="preserve">
<style type="text/css">
	.st0{fill:#F2B91B;}
	.st1{fill:none;stroke:#231F20;stroke-width:21.1361;stroke-miterlimit:10;}
	.st2{fill:#ED2224;}
	.st3{fill:#CCCCCC;}
	.st4{fill:#231F20;}
	.st5{fill:#3A53A4;}
</style>
<rect x="-0.12" y="0.38" class="st0" width="1024" height="1024"/>
<g>
	<g>
		<path class="st1" d="M104.46,249.85c0,0,143.03-106.11,211.77,85.1"/>
		<path class="st1" d="M218.37,144.71c0,0,175.37-31.02,151.43,170.76"/>
		<line class="st1" x1="338.61" y1="758.82" x2="380.59" y2="885.78"/>
		<line class="st1" x1="383.28" y1="730.77" x2="486.57" y2="871.18"/>
		<line class="st1" x1="423.94" y1="683.19" x2="573.11" y2="813.11"/>
		<line class="st1" x1="445.18" y1="632.42" x2="638.68" y2="710.01"/>
		<line class="st1" x1="452.84" y1="590.72" x2="648.01" y2="590.72"/>
	</g>
	<g>
		<g id="XMLID_6_">
			<g>
				<path class="st2" d="M919.49,224.27c0.15,5.46,4.09,134.57-86.45,228.68c-44.78,46.6-104.72,76-178.52,87.82
					c-0.08-0.83-0.23-1.67-0.3-2.5c-0.3-2.42-0.61-4.85-0.99-7.2c-0.53-3.86-1.06-7.58-1.74-11.29
					c69.03-11.06,124.72-38.26,166.17-81.3c71.75-74.48,79.86-175.86,80.62-205.19C745.74,204.64,652.4,293.6,605.64,359.82
					c-2.88,4.09-5.61,8.11-8.18,11.97c-1.67,2.58-3.33,5.15-4.85,7.65c-1.52,2.42-2.96,4.85-4.39,7.2
					c-1.36,2.35-2.73,4.62-3.94,6.74c-0.08,0.23-0.23,0.45-0.3,0.61c-5.61-3.79-11.59-7.2-17.88-10.3
					c22.88-39.63,70.01-105.78,145.03-145.03l21.59-10.15c48.72-20.53,107.9-29.25,178.36-14.17l8.11,1.74L919.49,224.27z"/>
				<path class="st3" d="M898.27,233.29c-0.76,29.32-8.87,130.7-80.62,205.19c-41.45,43.04-97.14,70.24-166.17,81.3
					c-0.76-4.93-1.59-9.62-2.58-14.24c-1.36-6.74-2.88-13.26-4.55-19.4c-2.5-9.24-5.38-17.88-8.56-25.84
					c-8.49-21.22-19.62-38.11-33.64-51.68c-5.61-5.38-11.59-10.23-18.18-14.62c0.08-0.15,0.23-0.38,0.3-0.61
					c1.29-2.12,2.58-4.39,3.94-6.74c1.44-2.35,2.88-4.77,4.39-7.2c1.59-2.5,3.18-5.08,4.85-7.65c2.58-3.86,5.3-7.88,8.18-11.97
					C652.4,293.6,745.74,204.64,898.27,233.29z"/>
				<path class="st4" d="M732.64,221.62c0.08,2.27,0.08,4.62,0.08,6.9l-21.59,10.15c0.68-8.41,0.61-17.28,0.08-26.07
					c-0.08-1.67-0.23-3.33-0.38-4.93c0-0.91-0.08-1.82-0.23-2.73c-0.08-1.67-0.3-3.41-0.45-5.08c-0.53-5.23-1.21-10.3-1.97-15.15
					c-0.23-1.82-0.53-3.64-0.76-5.38l20.08-7.88c0.23,1.44,0.53,2.88,0.76,4.39c0.15,1.14,0.38,2.27,0.53,3.49
					c0.61,3.56,1.14,7.27,1.59,11.14c0.3,2.2,0.53,4.47,0.76,6.74c0.23,1.59,0.38,3.18,0.45,4.77c0.15,1.29,0.23,2.5,0.3,3.71
					c0.3,3.03,0.45,6.06,0.61,9.09C732.56,217.07,732.64,219.34,732.64,221.62z"/>
				<path class="st4" d="M732.48,214.8c0.08,2.27,0.15,4.55,0.15,6.82C732.64,219.34,732.56,217.07,732.48,214.8z"/>
				<path class="st4" d="M731.88,205.71c-0.08-1.21-0.15-2.42-0.3-3.71C731.73,203.2,731.8,204.49,731.88,205.71z"/>
				<path class="st2" d="M731.12,197.22c-0.23-2.27-0.45-4.55-0.76-6.74C730.67,192.67,730.89,194.95,731.12,197.22z"/>
				<path class="st4" d="M728.77,179.34c-0.15-1.21-0.38-2.35-0.53-3.49C728.39,176.99,728.62,178.12,728.77,179.34z"/>
				<path class="st2" d="M727.48,171.46l-20.08,7.88c-1.74-10.3-3.64-19.4-5.15-25.99c-39.93,15.76-174.42,79.18-172.23,218.07
					c-2.5-0.38-4.93-0.61-7.35-0.68c-1.21-0.08-2.42-0.08-3.64-0.08c-0.38,0-0.76,0-1.14,0c-0.83,0-1.67,0.08-2.42,0.15
					c-2.27,0.08-4.47,0.3-6.59,0.68c-2.2-174.73,195.34-241.48,197.46-242.16l10.53-3.41l2.96,10.61
					C720.13,137.66,724.07,151.83,727.48,171.46z"/>
				<path class="st3" d="M711.19,212.6c0.53,8.79,0.61,17.65-0.08,26.07c-75.01,39.25-122.14,105.4-145.03,145.03
					c-0.3-0.15-0.53-0.3-0.76-0.38c-4.7-2.27-9.55-4.39-14.62-6.36c-2.73-1.06-5.38-1.97-8.03-2.73c-2.5-0.76-4.93-1.36-7.35-1.82
					c-0.45-0.15-0.91-0.23-1.36-0.3c-0.08,0-0.23-0.08-0.3-0.08c-1.21-0.23-2.35-0.45-3.49-0.53c-0.08-0.08-0.15-0.08-0.15-0.08
					c-2.2-138.89,132.3-202.31,172.23-218.07c1.52,6.59,3.41,15.68,5.15,25.99h-0.08c0.3,1.74,0.61,3.56,0.83,5.38
					c0.76,4.85,1.44,9.93,1.97,15.15c0.15,1.67,0.3,3.33,0.45,5.08c0.15,0.91,0.23,1.82,0.23,2.73
					C710.97,209.34,711.12,210.93,711.19,212.6z"/>
				<path class="st4" d="M711.19,212.6c-0.08-1.67-0.23-3.26-0.38-4.93C710.97,209.27,711.12,210.93,711.19,212.6z"/>
				<path class="st2" d="M710.59,204.95c-0.15-1.74-0.3-3.41-0.45-5.08C710.28,201.54,710.51,203.28,710.59,204.95z"/>
				<path class="st4" d="M708.16,184.72c-0.23-1.82-0.53-3.64-0.83-5.38h0.08C707.63,181.08,707.94,182.9,708.16,184.72z"/>
				<path class="st5" d="M659.82,648.66c0,24.47-5,49.33-14.09,73.35c-9.09,24.1-22.28,47.36-38.64,68.72
					c-8.18,10.61-17.12,20.84-26.82,30.38c-4.85,4.77-9.85,9.32-15,13.79c-5.15,4.39-10.46,8.71-15.91,12.73
					c-21.82,16.21-45.99,29.32-71.45,38.11c-0.15,0.08-0.38,0.15-0.53,0.15c-4.62,1.52-9.62,3.11-14.78,4.55
					c-5.46,1.44-11.29,2.8-17.35,3.94c-3.11,0.61-6.21,1.06-9.47,1.52c-3.18,0.45-6.36,0.83-9.7,1.14
					c-6.29,0.61-12.73,0.99-19.4,1.06c-0.45,0-0.83,0-1.29,0c-14.17,0-29.17-1.44-44.78-4.93c-15.61-3.41-31.82-8.94-48.34-17.12
					c-16.52-8.18-33.34-19.02-50.16-33.19c-4.24-3.49-8.41-7.27-12.65-11.21c-4.17-3.94-8.41-8.11-12.65-12.5
					c-8.41-8.79-16.75-18.49-25.08-29.17l-7.05-9.02l-7.05-9.09l22.96,1.06c0.08,0,0.83,0.08,2.2,0.08l2.5,0.08l3.11,3.94
					c4.55,5.83,9.17,11.37,13.71,16.59c0.68,0.76,1.36,1.52,2.05,2.27c17.88,20.08,35.99,35.54,53.8,47.28
					c8.64,5.68,17.28,10.53,25.76,14.62c2.88,1.44,5.68,2.65,8.49,3.86c0.23,0.08,0.45,0.15,0.68,0.3c2.42,0.98,4.77,1.89,7.12,2.8
					c8.56,3.18,16.9,5.68,25.08,7.5c1.82,0.45,3.64,0.83,5.38,1.14c3.49,0.68,7.05,1.21,10.46,1.67c1.52,0.23,2.96,0.45,4.39,0.61
					c2.35,0.23,4.7,0.45,7.05,0.61c1.59,0.15,3.11,0.23,4.62,0.3c9.62,0.45,18.79,0.15,27.5-0.68c3.33-0.3,6.52-0.68,9.7-1.21
					c2.27-0.3,4.47-0.68,6.67-1.06c3.56-0.68,6.97-1.36,10.23-2.12c2.12-0.53,4.24-1.06,6.21-1.59c4.93-1.29,9.47-2.73,13.71-4.17
					c18.49-6.36,36.29-15.38,52.96-26.37c3.11-2.05,6.06-4.09,9.02-6.36c1.14-0.68,2.2-1.44,3.26-2.27
					c20-14.93,38.11-32.88,53.27-52.51c3.79-4.93,7.43-9.93,10.84-15c10.3-15.38,18.79-31.6,25.16-48.04
					c8.49-21.97,13.18-44.55,13.18-66.53c0-40.69-1.44-75.01-4.77-104.11c-0.08-0.3-0.08-0.68-0.15-0.98
					c7.05-0.83,13.94-1.74,20.76-2.8C658.15,571.3,659.82,606.91,659.82,648.66z"/>
				<path class="st2" d="M654.21,538.26c0.08,0.83,0.23,1.67,0.3,2.5c-6.82,1.06-13.71,1.97-20.76,2.8
					c-0.38-3.33-0.76-6.52-1.21-9.62c-0.53-3.94-1.06-7.73-1.67-11.37c7.05-0.76,13.87-1.67,20.61-2.8
					c0.68,3.71,1.21,7.43,1.74,11.29C653.61,533.41,653.91,535.84,654.21,538.26z"/>
				<path class="st2" d="M651.49,519.77c0.68,3.71,1.21,7.43,1.74,11.29C652.7,527.2,652.17,523.49,651.49,519.77z"/>
				<path class="st5" d="M648.91,505.53c0.99,4.62,1.82,9.32,2.58,14.24c-6.74,1.14-13.56,2.05-20.61,2.8
					c-0.15-0.99-0.3-1.89-0.53-2.88c-3.11-18.11-7.2-33.87-12.35-47.58c-5.61-14.7-12.43-27.05-20.69-37.43
					c-2.73-3.41-5.61-6.67-8.79-9.7c0,0,0-0.08-0.08-0.08c-4.47-4.39-9.24-8.41-14.4-12.05c1.06-2.27,2.35-4.7,3.71-7.43
					c0.99-1.82,1.97-3.71,3.03-5.76c0.99-1.82,2.05-3.71,3.18-5.68c6.59,4.39,12.58,9.24,18.18,14.62
					c14.02,13.56,25.16,30.46,33.64,51.68c3.18,7.96,6.06,16.59,8.56,25.84C646.03,492.27,647.55,498.71,648.91,505.53z"/>
				<path class="st5" d="M644.36,486.13c1.67,6.14,3.18,12.65,4.55,19.4C647.55,498.71,646.03,492.27,644.36,486.13z"/>
				<path class="st2" d="M632.54,533.94c0.45,3.11,0.83,6.29,1.21,9.62c-18.49,2.05-37.89,3.11-57.96,3.11h-6.59l-2.88-5.99
					c-0.45-0.91-6.52-13.79-11.44-40.84h21.52c2.35,12.05,4.93,20.53,6.67,25.61c16.52-0.23,32.43-1.21,47.74-2.88
					c0.08,0,0.08,0,0.08,0C631.48,526.29,632.01,530,632.54,533.94z"/>
				<path class="st5" d="M630.88,522.58c0.61,3.64,1.14,7.43,1.67,11.37C632.01,530,631.48,526.29,630.88,522.58z"/>
				<path class="st5" d="M630.35,519.7c0.23,0.99,0.38,1.89,0.53,2.88c0,0,0,0-0.08,0C630.72,521.59,630.57,520.61,630.35,519.7z"/>
				<path class="st3" d="M630.35,519.7c0.23,0.91,0.38,1.89,0.45,2.88c-15.31,1.67-31.22,2.65-47.74,2.88
					c-1.74-5.08-4.32-13.56-6.67-25.61h0.08c-0.61-2.88-1.14-5.91-1.74-9.17c0-0.23,0-0.45-0.08-0.61
					c-0.76-4.7-1.44-9.77-2.12-15.31c-1.14-9.62-2.05-20.61-2.58-32.88c-0.15-3.56-0.23-7.12-0.3-10.91
					c-0.08-2.73-0.15-5.53-0.15-8.33c0.91-2.05,2.42-5.38,4.55-9.77c5.15,3.64,9.93,7.65,14.4,12.05l0.08,0.08
					c3.03,3.03,5.99,6.21,8.79,9.7c8.26,10.38,15.08,22.73,20.69,37.43C623.15,485.83,627.24,501.59,630.35,519.7z"/>
				<path class="st2" d="M605.64,359.82c-2.88,4.09-5.61,8.11-8.18,11.97C600.04,367.93,602.77,363.91,605.64,359.82z"/>
				<path class="st4" d="M600.34,763.23c-3.41,5.08-7.05,10.08-10.84,15C593.29,773.3,596.86,768.3,600.34,763.23z"/>
				<path class="st2" d="M597.46,371.79c-1.67,2.58-3.26,5.15-4.85,7.65C594.13,376.95,595.79,374.37,597.46,371.79z"/>
				<path class="st5" d="M588.52,424.99c3.18,3.03,6.06,6.29,8.79,9.7C594.51,431.2,591.55,428.02,588.52,424.99z"/>
				<path class="st5" d="M588.44,424.91c0.08,0,0.08,0.08,0.08,0.08L588.44,424.91z"/>
				<path class="st2" d="M588.22,386.65c-1.36,2.35-2.65,4.62-3.94,6.74C585.49,391.27,586.85,388.99,588.22,386.65z"/>
				<path class="st2" d="M583.97,394c-1.14,1.97-2.2,3.86-3.18,5.68C581.78,397.86,582.84,395.97,583.97,394z"/>
				<path class="st2" d="M583.97,394c-1.14,1.97-2.2,3.86-3.18,5.68c-1.06,2.05-2.05,3.94-3.03,5.76c-1.36,2.73-2.65,5.15-3.71,7.43
					c-5.61-3.94-11.59-7.43-18.11-10.61c2.58-5.08,5.99-11.37,10.15-18.56C572.38,386.8,578.37,390.21,583.97,394z"/>
				<path class="st2" d="M580.79,399.68c-1.06,2.05-2.05,3.94-3.03,5.76C578.75,403.62,579.73,401.72,580.79,399.68z"/>
				<path class="st4" d="M576.47,499.85h-0.08c-0.53-2.8-1.14-5.91-1.67-9.17C575.34,493.94,575.87,496.97,576.47,499.85z"/>
				<path class="st4" d="M576.4,499.85h-21.52c-0.38-2.12-0.76-4.32-1.14-6.67c-0.38-2.27-0.76-4.7-1.14-7.2
					c-0.3-2.12-0.61-4.24-0.83-6.52c-0.38-3.03-0.76-6.21-1.06-9.55c-0.23-2.2-0.45-4.47-0.61-6.82c-0.3-3.11-0.53-6.29-0.68-9.62
					c-0.08-0.83-0.15-1.67-0.15-2.5c-0.08-0.76-0.08-1.44-0.15-2.2c-0.08-2.35-0.23-4.7-0.3-7.12c-0.08-2.65-0.15-5.3-0.23-8.03
					c-0.08-0.83-0.08-1.74-0.08-2.58h20.99l0.15-0.08c0,3.71,0.15,7.35,0.3,10.91c0.53,12.27,1.44,23.26,2.58,32.88
					c0.61,5.53,1.36,10.61,2.12,15.31c0.08,0.15,0.08,0.38,0.08,0.61C575.26,493.94,575.87,497.04,576.4,499.85z"/>
				<path class="st4" d="M572.53,474.77c0.68,5.53,1.36,10.61,2.12,15.31C573.9,485.37,573.14,480.3,572.53,474.77z"/>
				<path class="st4" d="M565.26,834.91c5.15-4.47,10.15-9.02,15-13.79C575.41,825.89,570.41,830.51,565.26,834.91z"/>
				<path class="st4" d="M569.96,441.88c0.53,12.27,1.44,23.26,2.58,32.88C571.4,465.14,570.49,454.16,569.96,441.88z"/>
				<path class="st2" d="M574.05,412.86c-2.12,4.39-3.64,7.73-4.55,9.77c0,2.8,0.08,5.61,0.15,8.33l-0.15,0.08h-20.99h-31.75
					l-1.82-8.26c-2.27-10.3-3.86-20.31-4.85-30.01c0.23-0.08,0.45-0.15,0.68-0.15c2.73-0.53,5.46-0.83,8.26-0.83
					c0.15,0,0.38,0,0.53,0c1.74,0,3.49,0.08,5.23,0.3c1.74,0.15,3.56,0.38,5.38,0.76c0.15,0,0.38,0.08,0.53,0.08
					c0.23,0.08,0.45,0.08,0.68,0.15c0.61,5.46,1.44,11.14,2.5,16.82h18.26c0.98-2.12,2.27-4.7,3.79-7.65
					C562.46,405.44,568.44,408.92,574.05,412.86z"/>
				<path class="st4" d="M569.65,430.97c0.08,3.79,0.15,7.35,0.3,10.91C569.81,438.32,569.65,434.68,569.65,430.97z"/>
				<path class="st5" d="M565.33,383.31c0.23,0.08,0.45,0.23,0.76,0.38c-4.17,7.2-7.58,13.49-10.15,18.56
					c-4.09-1.97-8.33-3.86-12.81-5.61c-4.09-1.59-7.96-2.73-11.74-3.56c-0.83-7.43-1.29-14.62-1.36-21.59
					c0.08-0.08,0.08-0.08,0.15,0c1.14,0.15,2.35,0.3,3.49,0.53c0.08,0,0.23,0.08,0.3,0.08c0.45,0.08,0.91,0.15,1.36,0.3
					c2.42,0.45,4.85,1.06,7.35,1.82c2.65,0.76,5.3,1.67,8.03,2.73C555.79,378.92,560.71,381.04,565.33,383.31z"/>
				<path class="st5" d="M550.71,376.95c5.08,1.97,9.93,4.09,14.62,6.36C560.71,381.04,555.79,378.92,550.71,376.95z"/>
				<path class="st3" d="M543.13,396.65c4.47,1.74,8.71,3.64,12.81,5.61c-1.52,2.96-2.8,5.53-3.79,7.65h-18.26
					c-1.06-5.68-1.89-11.37-2.5-16.82C535.18,393.92,539.04,395.06,543.13,396.65z"/>
				<path class="st2" d="M552.61,485.98c0.38,2.5,0.76,4.93,1.14,7.2C553.36,490.83,552.98,488.48,552.61,485.98z"/>
				<path class="st2" d="M551.77,479.46c0.23,2.27,0.53,4.39,0.83,6.52C552.3,483.86,552,481.74,551.77,479.46z"/>
				<path class="st2" d="M550.1,463.1c0.15,2.35,0.38,4.62,0.61,6.82C550.48,467.72,550.26,465.45,550.1,463.1z"/>
				<path class="st4" d="M549.27,450.97c0,0.83,0.08,1.67,0.15,2.5C549.35,452.64,549.27,451.81,549.27,450.97z"/>
				<path class="st2" d="M548.82,441.66c0.08,2.42,0.23,4.77,0.3,7.12C549.04,446.43,548.89,444.08,548.82,441.66z"/>
				<path class="st2" d="M548.59,433.62c0.08,2.73,0.15,5.38,0.23,8.03C548.74,439.08,548.67,436.35,548.59,433.62z"/>
				<path class="st5" d="M542.68,374.22c-2.5-0.76-4.93-1.36-7.35-1.82C537.75,372.86,540.18,373.46,542.68,374.22z"/>
				<path class="st2" d="M533.66,372.02c-1.14-0.23-2.35-0.38-3.49-0.53C531.31,371.57,532.45,371.79,533.66,372.02z"/>
				<path class="st2" d="M531.39,393.09c-0.23-0.08-0.45-0.08-0.68-0.15c-0.15,0-0.38-0.08-0.53-0.08
					c-1.82-0.38-3.64-0.61-5.38-0.76c-1.74-0.23-3.49-0.3-5.23-0.3c-0.15,0-0.38,0-0.53,0c-2.8,0-5.53,0.3-8.26,0.83
					c-0.23,0-0.45,0.08-0.68,0.08c-0.68-7.27-1.14-14.32-1.21-21.22c2.12-0.38,4.32-0.61,6.59-0.68c1.14-0.08,2.35-0.15,3.56-0.15
					s2.42,0,3.64,0.08c2.42,0.15,4.85,0.38,7.35,0.76C530.1,378.46,530.56,385.66,531.39,393.09z"/>
				<path class="st3" d="M530.18,371.49c-0.08-0.08-0.08-0.08-0.15,0c-0.08-0.08,0-0.08,0-0.08S530.1,371.42,530.18,371.49z"/>
				<path class="st2" d="M530.18,392.86c-1.82-0.38-3.64-0.61-5.38-0.76C526.54,392.25,528.36,392.48,530.18,392.86z"/>
				<path class="st2" d="M530.03,371.42c0,0-0.08,0,0,0.08c-2.5-0.38-4.93-0.61-7.35-0.76C525.1,370.81,527.53,371.04,530.03,371.42
					z"/>
				<path class="st5" d="M523.96,839.38c3.03-2.05,6.06-4.09,9.02-6.36C530.03,835.28,527.07,837.33,523.96,839.38z"/>
				<path class="st2" d="M524.8,392.1c-1.74-0.23-3.49-0.3-5.23-0.3C521.31,391.8,523.05,391.87,524.8,392.1z"/>
				<path class="st5" d="M519.04,370.66c-1.21,0-2.42,0.08-3.56,0.15c0.76-0.08,1.59-0.15,2.42-0.15
					C518.28,370.66,518.66,370.66,519.04,370.66z"/>
				<path class="st2" d="M510.78,392.63c-0.23,0-0.45,0.08-0.68,0.15v-0.08C510.33,392.71,510.55,392.63,510.78,392.63z"/>
				<path class="st5" d="M510.1,392.71v0.08c-0.68,0.08-1.29,0.23-1.97,0.38c-1.82,0.45-3.49,0.99-5.23,1.67
					c-1.74,0.61-3.49,1.36-5.15,2.27c-2.35,1.21-4.62,2.65-6.82,4.24c-1.44,0.99-2.8,2.05-4.17,3.18c-0.3,0.3-0.68,0.61-0.99,0.99
					c-1.36,1.06-2.65,2.35-3.86,3.64c-1.52,1.59-3.03,3.18-4.39,4.93c-2.88,3.41-5.38,7.05-7.65,10.68
					c-2.27,3.64-4.32,7.27-6.06,10.84c-0.76,2.12-1.52,4.32-2.35,6.59c-0.83,2.2-1.67,4.47-2.58,6.74c-0.91,2.35-1.82,4.7-2.8,7.05
					c-0.45,1.21-0.99,2.35-1.44,3.56c-0.08,0.23-0.15,0.38-0.23,0.61c-0.45,0.99-0.91,2.05-1.29,3.03l-5-1.67l-5-1.67l-5-1.74
					l-5-1.67c0.08-0.23,0.38-1.29,0.83-2.88c0-0.08,0.08-0.15,0.08-0.3c0.45-1.44,1.14-3.56,1.97-6.06
					c0.68-1.97,1.44-4.17,2.42-6.59c0.3-0.76,0.61-1.59,0.99-2.42c1.36-3.33,2.96-7.05,4.85-10.84c3.86-11.37,6.74-22.05,8.64-31.82
					c0.15-0.61,0.3-1.14,0.38-1.74c0.23-1.06,0.38-2.12,0.45-3.11c0.3-1.21,0.45-2.42,0.61-3.64c0.99-6.67,1.44-12.88,1.44-18.72
					c0-0.91,0-1.82,0-2.73c0-1.21-0.08-2.42-0.23-3.56c0-0.38,0-0.83-0.08-1.21c-0.08-1.44-0.23-2.88-0.45-4.24
					c-0.08-0.61-0.15-1.29-0.3-1.89c-0.08-0.99-0.3-1.97-0.53-2.88c-0.15-1.06-0.45-2.12-0.76-3.11c-0.08-0.38-0.15-0.83-0.3-1.21
					c-0.38-1.44-0.83-2.88-1.36-4.24c-0.61-1.59-1.21-3.18-1.97-4.62c-2.2-4.47-5.08-8.26-8.49-11.44
					c-1.14-1.06-2.27-2.05-3.56-2.88c-0.08-0.15-0.15-0.23-0.3-0.23c-0.99-0.76-2.05-1.44-3.11-2.05c0-0.08-0.08-0.08-0.08-0.08
					c-0.53-0.3-1.14-0.61-1.74-0.91c-3.64-1.97-7.73-3.49-11.97-4.47c-0.83-0.23-1.59-0.38-2.42-0.53
					c-0.99-0.23-2.05-0.38-3.11-0.53c-0.3,0-0.61-0.08-0.91-0.08c-1.52-0.3-3.03-0.45-4.62-0.53c-0.15,0-0.3,0-0.53,0
					c-4.24-0.3-8.64-0.23-13.11,0.15c-0.38,0-0.83,0-1.21,0.08c-0.91,0.08-1.82,0.23-2.8,0.38c-1.59,0.15-3.18,0.38-4.85,0.68
					c-2.05,0.3-4.17,0.68-6.29,1.14c-1.97,0.38-4.02,0.91-5.99,1.36c-1.14,0.3-2.27,0.61-3.41,0.99c-1.36,0.3-2.73,0.76-4.09,1.21
					c-0.23,0-0.45,0.08-0.68,0.15c-1.14,0.38-2.35,0.76-3.49,1.21c-1.36,0.38-2.65,0.91-4.02,1.44c-0.61,0.15-1.21,0.45-1.89,0.68
					c-1.52,0.61-3.03,1.21-4.55,1.82c-4.55,1.89-9.02,4.02-13.26,6.21c-3.79,1.97-7.27,4.09-10.61,6.44
					c-1.21,0.83-2.35,1.67-3.49,2.58c-0.99,0.68-1.89,1.36-2.73,2.12c-0.53,0.45-1.14,0.91-1.67,1.44c-1.14,0.91-2.2,1.89-3.26,2.96
					c-1.29,1.14-2.5,2.35-3.56,3.64c-1.06,0.99-1.97,1.97-2.88,3.03c-2.73,3.03-5.23,6.29-7.5,9.55c-1.29,1.82-2.5,3.64-3.64,5.53
					c-1.14,1.82-2.2,3.64-3.18,5.46c-1.14,1.97-2.12,4.02-3.11,5.99s-1.89,3.94-2.73,5.91c-1.74,3.94-3.26,7.96-4.7,11.9
					c-0.68,2.05-1.29,4.02-1.89,5.99c-0.68,2.27-1.36,4.62-1.97,6.9c-0.45,1.59-0.83,3.26-1.21,4.85
					c-0.99,3.86-1.74,7.73-2.42,11.37c-1.29,7.35-2.2,14.32-2.73,20.46c-0.15,1.52-0.3,2.96-0.38,4.32
					c-0.08,0.45-0.08,0.99-0.08,1.44c-0.15,0.99-0.15,1.89-0.23,2.8c0,0.23,0,0.45,0,0.68c-0.08,1.21-0.15,2.35-0.15,3.26
					c-0.38,6.9-0.23,7.65-0.15,7.88l-5.76,3.56l-4.7,2.88l-10.23,6.44l-0.3-5.83c-0.08-1.21-0.53-9.32,0.15-21.44
					c0.23-3.86,0.53-8.11,1.06-12.73c0.15-1.52,0.3-3.11,0.53-4.7c0.45-3.56,0.99-7.2,1.67-11.06c0.91-5.38,2.12-11.06,3.56-16.82
					c0-0.08,0.08-0.23,0.08-0.3c0.53-2.12,1.06-4.17,1.67-6.36c1.89-6.67,4.17-13.41,6.97-20.15c0.91-2.2,1.82-4.47,2.88-6.67
					c1.67-3.64,3.49-7.27,5.53-10.84c0.61-1.29,1.36-2.58,2.12-3.79c0.99-1.67,1.97-3.26,3.03-4.85c0.08-0.15,0.15-0.23,0.3-0.38
					c1.21-1.97,2.58-3.94,4.02-5.83c1.44-2.05,2.96-4.02,4.55-5.99c1.97-2.35,4.02-4.7,6.21-6.97c1.29-1.29,2.58-2.58,3.94-3.86
					c0.45-0.53,0.99-0.99,1.52-1.44c1.36-1.36,2.88-2.65,4.39-3.86c0.45-0.45,0.99-0.91,1.52-1.29c1.14-0.91,2.27-1.82,3.49-2.65
					c1.06-0.91,2.12-1.67,3.26-2.35c0.76-0.61,1.59-1.14,2.42-1.67c1.36-0.91,2.65-1.82,4.09-2.65c2.12-1.29,4.24-2.5,6.52-3.64
					c2.35-1.21,4.77-2.42,7.27-3.56c1.82-0.83,3.56-1.67,5.38-2.42c0.76-0.3,1.52-0.68,2.35-0.99c2.12-0.91,4.39-1.74,6.67-2.65
					c0.53-0.15,1.06-0.38,1.59-0.53c2.58-0.99,5.23-1.82,7.88-2.65c5.68-1.82,11.52-3.33,17.35-4.47c2.73-0.53,5.38-0.99,8.03-1.36
					c2.8-0.45,5.53-0.76,8.26-0.99c0.08,0,0.23,0,0.3,0c7.43-0.61,14.78-0.53,21.9,0.38c1.36,0.15,2.73,0.38,4.09,0.61
					c0.76,0.15,1.59,0.3,2.42,0.45c1.14,0.23,2.2,0.45,3.33,0.76c0.76,0.15,1.44,0.38,2.12,0.61c5.68,1.52,11.06,3.79,16.14,6.74
					c0.91,0.45,1.82,1.06,2.73,1.67c1.82,1.14,3.56,2.42,5.23,3.79c1.06,0.83,2.12,1.74,3.11,2.65c2.12,1.97,4.24,4.24,6.21,6.82
					c0.61,0.76,1.21,1.59,1.82,2.42c0.53,0.68,0.99,1.36,1.44,2.05c1.52,2.35,2.88,4.85,4.17,7.65c0.61,1.21,1.14,2.42,1.59,3.71
					c0.61,1.44,1.14,2.88,1.59,4.39c0.3,0.91,0.61,1.82,0.83,2.8c0.3,0.91,0.61,1.89,0.83,2.96c0.38,1.59,0.76,3.26,1.06,5
					c0.3,1.44,0.53,2.88,0.68,4.32c0.15,1.14,0.3,2.27,0.38,3.49c0.08,0.76,0.15,1.52,0.23,2.27c0.08,1.21,0.15,2.5,0.23,3.79
					c0.08,0.53,0.08,1.06,0.08,1.67c0,1.29,0.08,2.58,0.08,3.94c0,2.12-0.08,4.32-0.23,6.59c0,0.68-0.08,1.36-0.08,2.12
					c-0.23,2.8-0.45,5.68-0.83,8.64c0.91-0.76,1.89-1.44,2.88-2.2c0.99-0.68,1.97-1.36,3.03-2.05c0.99-0.68,2.05-1.29,3.11-1.89
					s2.12-1.21,3.18-1.82c4.77-2.42,9.62-4.24,14.62-5.53c1.29-0.3,2.5-0.61,3.79-0.83c0.83-0.15,1.67-0.3,2.5-0.45
					C508.96,378.39,509.42,385.43,510.1,392.71z"/>
				<path class="st5" d="M510.1,392.78c-0.68,0.08-1.29,0.23-1.97,0.38C508.81,393.01,509.42,392.86,510.1,392.78z"/>
				<path class="st4" d="M508.89,371.49c-0.83,0.15-1.67,0.3-2.5,0.45C507.22,371.72,508.05,371.57,508.89,371.49z"/>
				<path class="st4" d="M506.38,371.95c-1.29,0.23-2.5,0.53-3.79,0.83C503.88,372.4,505.1,372.17,506.38,371.95z"/>
				<path class="st5" d="M497.75,397.1c1.67-0.91,3.41-1.67,5.15-2.27C501.16,395.51,499.49,396.27,497.75,397.1z"/>
				<path class="st4" d="M486.76,404.53c1.36-1.14,2.73-2.2,4.17-3.18c-1.82,1.21-3.49,2.58-5.15,4.17
					C486.08,405.13,486.46,404.83,486.76,404.53z"/>
				<path class="st5" d="M485.78,405.51c-1.36,1.14-2.58,2.35-3.86,3.64C483.12,407.86,484.41,406.57,485.78,405.51z"/>
				<path class="st5" d="M481.91,409.15c-1.52,1.59-3.03,3.18-4.39,4.93C478.88,412.33,480.4,410.74,481.91,409.15z"/>
				<path class="st4" d="M476.68,375.51c0.15-2.27,0.23-4.47,0.23-6.59C476.91,371.04,476.83,373.23,476.68,375.51z"/>
				<path class="st5" d="M476.76,363.31c0.08,0.53,0.08,1.06,0.08,1.67C476.83,364.37,476.83,363.84,476.76,363.31z"/>
				<path class="st4" d="M475.77,386.27c0.38-2.96,0.61-5.83,0.83-8.64C476.38,380.43,476.15,383.31,475.77,386.27z"/>
				<path class="st4" d="M476.53,359.52c-0.08-0.76-0.15-1.52-0.23-2.27C476.46,358,476.53,358.76,476.53,359.52z"/>
				<path class="st4" d="M475.24,349.44c0.3,1.44,0.53,2.88,0.68,4.32C475.77,352.32,475.55,350.88,475.24,349.44z"/>
				<path class="st5" d="M474.18,344.44c-0.23-1.06-0.53-2.05-0.83-2.96C473.65,342.4,473.96,343.38,474.18,344.44z"/>
				<path class="st4" d="M477.52,414.07c-2.88,3.41-5.38,7.05-7.65,10.68C472.14,421.12,474.64,417.48,477.52,414.07z"/>
				<path class="st4" d="M472.52,338.68c-0.45-1.52-0.99-2.96-1.59-4.39C471.53,335.65,472.06,337.17,472.52,338.68z"/>
				<path class="st4" d="M470.92,334.29c-0.45-1.29-0.99-2.5-1.59-3.71C469.94,331.79,470.47,333,470.92,334.29z"/>
				<path class="st4" d="M462.59,890.44c5.15-1.44,10.15-3.03,14.78-4.55C472.74,887.49,467.82,889.01,462.59,890.44z"/>
				<path class="st4" d="M469.86,424.76c-2.27,3.64-4.32,7.27-6.06,10.84C465.54,432.03,467.59,428.4,469.86,424.76z"/>
				<path class="st4" d="M461.45,442.19c0.83-2.27,1.59-4.47,2.35-6.59C463.04,437.72,462.29,439.91,461.45,442.19z"/>
				<path class="st5" d="M463.73,320.88c-0.61-0.83-1.21-1.67-1.82-2.42C462.51,319.21,463.12,320.04,463.73,320.88z"/>
				<path class="st4" d="M458.88,448.93c0.91-2.27,1.74-4.55,2.58-6.74C460.7,444.38,459.79,446.66,458.88,448.93z"/>
				<path class="st4" d="M456.07,455.98c0.99-2.35,1.89-4.7,2.8-7.05c-1.29,3.49-2.73,6.97-4.24,10.61
					C455.09,458.32,455.62,457.19,456.07,455.98z"/>
				<path class="st4" d="M451.07,871.5c2.12-0.53,4.17-1.06,6.21-1.59C455.32,870.44,453.19,870.97,451.07,871.5z"/>
				<path class="st4" d="M454.41,460.14c22.81,111,9.17,196.93-40.54,255.2c-53.34,62.59-132.98,75.77-171.7,78.27h-0.08
					c-4.55-5.23-9.17-10.76-13.71-16.59l-3.11-3.94l-2.5-0.08c16.06,0.15,115.78-1.67,175.11-71.45
					c43.27-50.84,56.15-126.01,38.42-223.68c-28.11,19.09-94.64,51.83-176.77,6.67l-5.15-2.8l10.23-6.44l4.7-2.88l5.76-3.56
					c84.41,43.04,146.92-5.15,158.97-15.61c0,0.15-0.08,0.23-0.08,0.3c-0.45,1.59-0.76,2.65-0.83,2.88l5,1.67l5,1.74l5,1.67l5,1.67
					C453.5,462.19,453.95,461.13,454.41,460.14z"/>
				<path class="st4" d="M455.77,365.58c0,0.91,0,1.82,0,2.73c0-2.2-0.08-4.24-0.23-6.29C455.69,363.16,455.77,364.37,455.77,365.58
					z"/>
				<path class="st4" d="M455.69,311.63c-0.99-0.91-2.05-1.82-3.11-2.65C453.65,309.81,454.71,310.72,455.69,311.63z"/>
				<path class="st4" d="M455.47,360.81c-0.08-1.44-0.23-2.88-0.45-4.24C455.24,357.93,455.39,359.37,455.47,360.81z"/>
				<path class="st4" d="M454.71,354.67c-0.15-0.99-0.3-1.97-0.53-2.88C454.41,352.7,454.63,353.69,454.71,354.67z"/>
				<path class="st5" d="M453.72,390.66c0.3-1.21,0.45-2.42,0.61-3.64C454.18,388.24,454.03,389.45,453.72,390.66z"/>
				<path class="st5" d="M454.18,351.79c-0.15-1.06-0.45-2.12-0.76-3.11C453.72,349.67,454.03,350.73,454.18,351.79z"/>
				<path class="st5" d="M462.59,890.44c-5.46,1.44-11.29,2.8-17.35,3.94C451.3,893.25,457.13,891.88,462.59,890.44z"/>
				<path class="st4" d="M452.89,395.51c0.3-1.67,0.61-3.26,0.83-4.85c-0.08,0.99-0.23,2.05-0.45,3.11
					C453.19,394.37,453.04,394.9,452.89,395.51z"/>
				<path class="st5" d="M453.12,347.47c-0.38-1.44-0.83-2.88-1.36-4.24C452.28,344.59,452.74,346.03,453.12,347.47z"/>
				<path class="st5" d="M451.75,343.23c-0.61-1.59-1.21-3.18-1.97-4.62C450.54,340.05,451.15,341.64,451.75,343.23z"/>
				<path class="st5" d="M447.36,305.19c-0.91-0.61-1.82-1.21-2.73-1.67C445.54,303.98,446.45,304.59,447.36,305.19z"/>
				<path class="st4" d="M441.3,327.17c-1.14-1.06-2.35-2.05-3.56-2.88C439.02,325.12,440.16,326.1,441.3,327.17z"/>
				<path class="st4" d="M434.18,874.68c2.27-0.3,4.47-0.68,6.67-1.06C438.65,874,436.45,874.38,434.18,874.68z"/>
				<path class="st4" d="M439.4,438.17c-0.38,0.83-0.68,1.67-0.99,2.42C438.72,439.84,439.02,439,439.4,438.17z"/>
				<path class="st4" d="M437.43,324.06c-0.99-0.76-2.05-1.44-3.11-2.05C435.39,322.62,436.45,323.3,437.43,324.06z"/>
				<path class="st4" d="M426.07,897.04c3.33-0.3,6.52-0.68,9.7-1.14c-9.17,1.29-18.87,2.12-29.1,2.2
					C413.34,898.02,419.78,897.64,426.07,897.04z"/>
				<path class="st5" d="M434.25,321.94c-0.53-0.3-1.14-0.68-1.74-0.91C433.11,321.33,433.72,321.63,434.25,321.94z"/>
				<path class="st5" d="M427.58,296.48c0.3,0.08,0.61,0.15,0.91,0.3c-0.68-0.23-1.36-0.45-2.12-0.61
					C426.75,296.25,427.2,296.4,427.58,296.48z"/>
				<path class="st4" d="M426.37,296.18c-1.14-0.3-2.2-0.53-3.33-0.76C424.17,295.64,425.23,295.87,426.37,296.18z"/>
				<path class="st4" d="M420.61,294.96c-1.36-0.23-2.73-0.45-4.09-0.61C417.88,294.51,419.25,294.74,420.61,294.96z"/>
				<path class="st4" d="M418.11,316.03c-0.99-0.15-2.05-0.38-3.11-0.53C416.07,315.65,417.13,315.8,418.11,316.03z"/>
				<path class="st4" d="M414.1,315.42c-1.52-0.23-3.03-0.38-4.62-0.53C411.07,314.97,412.58,315.12,414.1,315.42z"/>
				<path class="st4" d="M408.94,314.89c-4.17-0.3-8.64-0.23-13.11,0.15C400.31,314.66,404.7,314.59,408.94,314.89z"/>
				<path class="st4" d="M392.35,876.28c1.52,0.15,3.03,0.23,4.62,0.3C395.46,876.5,393.94,876.43,392.35,876.28z"/>
				<path class="st4" d="M395.84,315.04c-1.36,0.15-2.65,0.3-4.02,0.45c0.99-0.15,1.89-0.3,2.8-0.38
					C395,315.04,395.46,315.04,395.84,315.04z"/>
				<path class="st4" d="M394.32,293.98c-2.73,0.23-5.46,0.53-8.26,0.99C388.79,294.51,391.59,294.21,394.32,293.98z"/>
				<path class="st5" d="M386.97,316.18c-2.05,0.3-4.17,0.68-6.29,1.14C382.8,316.86,384.92,316.48,386.97,316.18z"/>
				<path class="st4" d="M386.06,294.96c-2.65,0.38-5.3,0.83-8.03,1.36C380.68,295.8,383.41,295.34,386.06,294.96z"/>
				<path class="st5" d="M380.91,875.06c1.52,0.23,2.96,0.38,4.39,0.61C383.86,875.52,382.42,875.29,380.91,875.06z"/>
				<path class="st4" d="M374.7,318.68c-1.14,0.3-2.27,0.61-3.41,0.99C372.42,319.29,373.56,318.98,374.7,318.68z"/>
				<path class="st5" d="M365.07,872.26c1.82,0.38,3.56,0.76,5.38,1.14C368.71,873.09,366.89,872.71,365.07,872.26z"/>
				<path class="st4" d="M367.19,320.88c-1.44,0.45-2.8,0.83-4.17,1.36c1.14-0.45,2.35-0.83,3.49-1.21
					C366.74,320.95,366.97,320.88,367.19,320.88z"/>
				<path class="st4" d="M363.03,322.24c-1.36,0.45-2.73,0.91-4.02,1.44C360.37,323.15,361.66,322.62,363.03,322.24z"/>
				<path class="st4" d="M360.68,300.8c-2.65,0.83-5.3,1.67-7.88,2.65C355.37,302.46,357.95,301.56,360.68,300.8z"/>
				<path class="st5" d="M357.12,324.36c-1.52,0.61-3.03,1.21-4.55,1.82C354.09,325.57,355.6,324.97,357.12,324.36z"/>
				<path class="st4" d="M351.21,303.98c-2.27,0.91-4.55,1.74-6.67,2.65C346.74,305.72,348.93,304.81,351.21,303.98z"/>
				<path class="st4" d="M342.19,307.62c-1.82,0.76-3.56,1.59-5.38,2.42C338.55,309.21,340.37,308.37,342.19,307.62z"/>
				<path class="st5" d="M332.87,861.96c2.35,0.98,4.77,1.89,7.12,2.8C337.64,863.85,335.29,862.94,332.87,861.96z"/>
				<path class="st5" d="M323.7,857.79c2.8,1.36,5.68,2.65,8.49,3.86C329.38,860.44,326.58,859.23,323.7,857.79z"/>
				<path class="st4" d="M328.7,338.83c-1.21,0.83-2.35,1.67-3.49,2.58C326.35,340.5,327.49,339.67,328.7,338.83z"/>
				<path class="st5" d="M325.22,341.41c-0.91,0.68-1.82,1.36-2.73,2.12C323.32,342.77,324.23,342.09,325.22,341.41z"/>
				<path class="st5" d="M323.02,317.24c-1.44,0.83-2.73,1.74-4.09,2.65C320.22,318.98,321.66,318.07,323.02,317.24z"/>
				<path class="st5" d="M320.82,344.97c-1.14,0.91-2.2,1.89-3.26,2.96C318.63,346.87,319.69,345.88,320.82,344.97z"/>
				<path class="st5" d="M316.5,321.56c-1.14,0.68-2.2,1.44-3.26,2.35C314.31,323.07,315.37,322.24,316.5,321.56z"/>
				<path class="st4" d="M314,351.56c-1.06,0.99-1.97,1.97-2.88,3.03C312.03,353.53,312.94,352.55,314,351.56z"/>
				<path class="st4" d="M313.25,323.91c-1.21,0.83-2.35,1.74-3.49,2.65C310.9,325.65,312.03,324.74,313.25,323.91z"/>
				<path class="st4" d="M308.24,327.85c-1.52,1.21-3.03,2.5-4.39,3.86C305.29,330.35,306.73,329.06,308.24,327.85z"/>
				<path class="st5" d="M303.62,364.14c-1.29,1.82-2.5,3.64-3.64,5.53C301.12,367.78,302.33,365.96,303.62,364.14z"/>
				<path class="st4" d="M302.33,333.15c-1.36,1.29-2.65,2.58-3.94,3.86C299.68,335.65,300.97,334.36,302.33,333.15z"/>
				<path class="st5" d="M299.99,369.67c-1.14,1.82-2.2,3.64-3.18,5.46C297.79,373.31,298.85,371.49,299.99,369.67z"/>
				<path class="st5" d="M293.7,381.11c-0.99,1.97-1.89,3.94-2.73,5.91C291.8,385.05,292.71,383.08,293.7,381.11z"/>
				<path class="st4" d="M292.18,343.99c-1.59,1.97-3.11,3.94-4.55,5.99C289.07,347.93,290.59,345.96,292.18,343.99z"/>
				<path class="st4" d="M287.63,349.97c-1.44,1.89-2.8,3.86-4.02,5.83C284.83,353.84,286.2,351.87,287.63,349.97z"/>
				<path class="st5" d="M286.27,398.92c-0.68,1.97-1.29,4.02-1.89,5.99C284.98,402.94,285.59,400.97,286.27,398.92z"/>
				<path class="st5" d="M282.41,411.8c-0.45,1.59-0.83,3.26-1.21,4.85C281.57,415.06,281.95,413.39,282.41,411.8z"/>
				<path class="st5" d="M280.29,361.04c-0.76,1.21-1.52,2.5-2.12,3.79C278.85,363.54,279.53,362.32,280.29,361.04z"/>
				<path class="st5" d="M281.19,416.65c-0.91,3.86-1.74,7.65-2.42,11.37C279.45,424.38,280.21,420.52,281.19,416.65z"/>
				<path class="st5" d="M276.04,448.47c-0.15,1.44-0.3,2.88-0.38,4.32C275.74,451.43,275.89,449.99,276.04,448.47z"/>
				<path class="st4" d="M275.59,454.23c-0.08,1.21-0.15,2.42-0.23,3.49c0-0.23,0-0.45,0-0.68
					C275.44,456.13,275.44,455.22,275.59,454.23z"/>
				<path class="st4" d="M275.21,460.98c-0.15,3.11-0.15,5.76-0.15,7.88C274.98,468.63,274.83,467.87,275.21,460.98z"/>
				<path class="st4" d="M272.63,375.66c-1.06,2.2-1.97,4.47-2.88,6.67C270.59,380.13,271.57,377.86,272.63,375.66z"/>
				<path class="st4" d="M262.78,402.48c-0.61,2.2-1.14,4.24-1.67,6.36C261.57,406.72,262.18,404.6,262.78,402.48z"/>
				<path class="st4" d="M261.04,409.15c-1.44,5.76-2.65,11.44-3.56,16.82C258.39,420.59,259.52,414.91,261.04,409.15z"/>
				<path class="st5" d="M255.81,437.03c-0.23,1.59-0.38,3.18-0.53,4.7C255.43,440.22,255.58,438.62,255.81,437.03z"/>
				<path class="st5" d="M244.14,795.88c-0.68-0.76-1.36-1.52-2.05-2.27h0.08C242.78,794.37,243.46,795.13,244.14,795.88z"/>
				<path class="st5" d="M236.79,819.14c4.24,4.39,8.49,8.56,12.65,12.5C245.2,827.71,240.96,823.54,236.79,819.14z"/>
				<path class="st5" d="M222.78,773c-1.36,0-2.12-0.08-2.2-0.08l-22.96-1.06L222.78,773z"/>
			</g>
			<g>
			</g>
		</g>
	</g>
</g>
</svg>
